{"title":"Immortals.2011.BRRip.XviD.AC3-PRESTiGE.","uid":7036519,"size":1950689773,"categoryP":"video","categoryS":"movies","magnet":"?xt=urn:btih:9861d97af8d1ca568aae2718194dbeec0013461a&amp;dn=Immortals.2011.BRRip.XviD.AC3-PRESTiGE.&amp;tr=udp%3A%2F%2Ftracker.openbittorrent.com%3A80&amp;tr=udp%3A%2F%2Fopen.demonii.com%3A1337&amp;tr=udp%3A%2F%2Ftracker.coppersurfer.tk%3A6969&amp;tr=udp%3A%2F%2Fexodus.desync.com%3A6969","seeders":0,"leechers":0,"uploader":"moviesp2p","files":4,"time":1329401327,"description":"More info www. MoviesP2P. com\n\n*******************************************************************************\n                   Immortals.2011.BRRip.XviD.AC3-PRESTiGE\n*******************************************************************************\n\n\nGeneral Information:\n\nComplete name                            : Immortals.2011.BRRip.XviD.AC3-PRESTiGE\nFormat                                   : AVI\nFormat/Info                              : Audio Video Interleave\nFile size                                : 1.80 GiB\nDuration                                 : 1h 50mn\nOverall bit rate                         : 2 336 Kbps\nLanguage                                 : English\nSubs                                     : N/A\nSource                                   : 720p-HDChina Many THANKS\nEncoder                                  : akosipalos\n\niMDB: http://www.imdb.com/title/tt1253864/\n\nVideo\n\nID                                       : 0\nFormat                                   : MPEG-4 Visual\nFormat profile                           : Advanced Simple@L5\nFormat settings, BVOP                    : 2\nFormat settings, QPel                    : No\nFormat settings, GMC                     : No warppoints\nFormat settings, Matrix                  : Default (H.263)\nCodec ID                                 : XVID\nCodec ID/Hint                            : XviD\nDuration                                 : 1h 50mn\nBit rate                                 : 1 881 Kbps\nWidth                                    : 720 pixels\nHeight                                   : 384 pixels\nDisplay aspect ratio                     : 1.875\nFrame rate                               : 23.976 fps\nColor space                              : YUV\nChroma subsampling                       : 4:2:0\nBit depth                                : 8 bits\nScan type                                : Progressive\nCompression mode                         : Lossy\nBits/(Pixel*Frame)                       : 0.284\nStream size                              : 1.45 GiB (80%)\nWriting library                          : XviD 1.2.1 (UTC 2008-12-04)\n\nAudio\n\nID                                       : 1\nFormat                                   : AC-3\nFormat/Info                              : Audio Coding 3\nMode extension                           : CM (complete main)\nCodec ID                                 : 2000\nDuration                                 : 1h 50mn\nBit rate mode                            : Constant\nBit rate                                 : 448 Kbps\nChannel(s)                               : 6 channels\nChannel positions                        : Front: L C R, Side: L R, LFE\nSampling rate                            : 48.0 KHz\nBit depth                                : 16 bits\nCompression mode                         : Lossy\nStream size                              : 354 MiB (19%)\nAlignment                                : Aligned on interleaves\nInterleave, duration                     : 64 ms (1.53 video frames)\nInterleave, preload duration             : 192 ms\n\n\nPlot:\n\nTheseus is a mortal man chosen by Zeus to lead the fight against the ruthless King Hyperion,\nwho is on a rampage across Greece to obtain a weapon that can destroy humanity.\n","torrent":{"xt":"urn:btih:9861d97af8d1ca568aae2718194dbeec0013461a","amp;dn":"Immortals.2011.BRRip.XviD.AC3-PRESTiGE.","amp;tr":["udp%3A%2F%2Ftracker.openbittorrent.com%3A80","udp%3A%2F%2Fopen.demonii.com%3A1337","udp%3A%2F%2Ftracker.coppersurfer.tk%3A6969","udp%3A%2F%2Fexodus.desync.com%3A6969"],"infoHash":"9861d97af8d1ca568aae2718194dbeec0013461a","infoHashBuffer":{"type":"Buffer","data":[152,97,217,122,248,209,202,86,138,174,39,24,25,77,190,236,0,19,70,26]},"announce":[],"urlList":[]}}